<?xml version="1.0" standalone="no"?>
<!DOCTYPE svg PUBLIC "-//W3C//DTD SVG 20010904//EN"
 "http://www.w3.org/TR/2001/REC-SVG-20010904/DTD/svg10.dtd">
<svg version="1.0" xmlns="http://www.w3.org/2000/svg"
 width="700.000000pt" height="700.000000pt" viewBox="0 0 700.000000 700.000000"
 preserveAspectRatio="xMidYMid meet">
<metadata>
Created by potrace 1.14, written by Peter Selinger 2001-2017
</metadata>
<g transform="translate(0.000000,700.000000) scale(0.100000,-0.100000)"
fill="#000000" stroke="none">
<path d="M2870 6732 c-13 -10 -37 -44 -54 -74 -17 -31 -46 -82 -65 -114 -19
-33 -42 -72 -51 -89 -10 -16 -72 -124 -139 -239 -66 -115 -121 -212 -121 -214
0 -3 -6 -13 -14 -21 -7 -9 -27 -41 -43 -71 -24 -44 -172 -301 -309 -535 -13
-22 -44 -76 -69 -120 -25 -44 -50 -87 -55 -95 -12 -17 -420 -722 -458 -790
-14 -25 -113 -196 -220 -380 -107 -184 -208 -360 -225 -390 -16 -30 -33 -59
-37 -65 -31 -41 -190 -331 -190 -346 0 -10 9 -28 20 -39 20 -20 33 -20 710
-20 380 0 690 -4 690 -8 0 -5 -30 -127 -66 -273 -36 -145 -67 -271 -69 -279
-2 -8 -74 -296 -160 -640 -86 -344 -158 -632 -160 -640 -2 -8 -56 -224 -120
-480 -64 -256 -118 -476 -120 -489 -3 -30 27 -61 60 -61 25 0 62 29 166 130
30 30 252 241 408 389 81 76 422 402 521 498 52 50 120 115 150 143 30 28 132
125 225 214 94 90 193 184 220 210 51 49 323 308 494 472 53 51 121 115 151
144 30 29 132 125 225 215 94 89 186 177 205 195 19 18 116 110 215 205 99 95
198 190 220 210 22 21 125 119 230 219 104 99 232 222 283 271 52 50 118 113
147 140 29 28 121 115 204 195 84 80 185 176 224 214 40 37 117 111 173 165
55 53 105 105 111 116 24 46 -6 85 -66 86 -20 0 -411 0 -868 1 -458 0 -833 2
-833 5 0 2 45 61 101 131 55 70 106 134 112 142 7 9 38 48 70 88 31 39 83 105
115 144 31 40 62 79 69 88 7 8 51 65 99 125 94 119 243 308 419 530 453 572
562 713 567 732 4 15 -1 32 -14 48 l-19 25 -1519 0 c-1457 0 -1519 -1 -1540
-18z m2052 -526 c-20 -25 -254 -322 -265 -336 -10 -13 -273 -344 -492 -621
-33 -42 -123 -156 -200 -254 -77 -97 -164 -207 -193 -244 -74 -92 -68 -84
-167 -211 -49 -63 -94 -120 -100 -126 -5 -6 -22 -26 -36 -45 -15 -19 -57 -72
-94 -119 l-66 -85 821 -3 821 -2 -113 -109 c-62 -60 -131 -126 -153 -146 -22
-21 -118 -113 -214 -204 -95 -91 -195 -186 -221 -211 -26 -25 -125 -119 -220
-210 -95 -91 -190 -181 -210 -200 -63 -60 -391 -373 -435 -415 -38 -37 -327
-312 -449 -428 -28 -27 -129 -124 -225 -215 -224 -215 -224 -214 -244 -231
-16 -13 -17 -12 -8 12 9 23 86 328 97 384 2 12 9 34 14 48 5 14 7 25 4 25 -2
0 0 8 5 18 5 9 11 31 14 47 3 17 42 176 87 355 45 179 83 332 85 340 2 8 36
141 75 295 39 154 73 295 76 313 l5 32 -610 0 c-336 0 -611 2 -611 4 0 4 87
156 116 203 8 13 15 26 15 30 1 5 9 19 19 33 14 20 193 326 260 445 9 17 38
65 64 108 25 43 46 80 46 83 0 2 20 36 44 76 43 71 456 784 501 863 12 22 70
123 130 225 59 102 116 201 127 220 36 63 130 225 144 246 l13 22 876 0 c645
-1 873 -4 867 -12z"/>
</g>
</svg>
